<svg width="159" height="31" viewBox="0 0 159 31" fill="none" xmlns="http://www.w3.org/2000/svg">
<path d="M45.833 24.4556V17.3411H49.2263C54.4334 17.3411 57.739 15.965 57.739 10.5486C57.739 5.16151 54.4334 3.81474 49.2263 3.81474H43.4342V24.4556H45.833ZM49.2556 15.2916H45.833V5.86418H49.2556C52.766 5.86418 55.3403 6.50829 55.3403 10.5486C55.3403 14.6475 52.766 15.2916 49.2556 15.2916ZM67.5681 24.7483C72.1901 24.7483 75.2032 21.4107 75.2032 17.1654C75.2032 12.9494 72.1901 9.61174 67.5681 9.61174C62.9169 9.61174 59.8745 12.9494 59.8745 17.1654C59.8745 21.4107 62.9169 24.7483 67.5681 24.7483ZM67.5681 22.6989C64.1163 22.6989 62.2733 20.2103 62.2733 17.1654C62.2733 14.1498 64.1163 11.6612 67.5681 11.6612C70.9908 11.6612 72.8337 14.1498 72.8337 17.1654C72.8337 20.2103 70.9908 22.6989 67.5681 22.6989ZM87.1971 24.4556V22.4061H83.1309V4.66379C83.1309 3.28774 82.4873 2.52652 81.1416 2.64363L77.7483 2.9364V4.98585L80.7613 4.72235V22.4061H76.6659V24.4556H87.1971ZM96.5289 28.3788V24.3092L102.848 9.90451H100.244L95.6805 21.235V22.3476H94.9784V21.235L90.4149 9.90451H87.7821L94.1301 24.3092V28.0567L88.8938 27.7932V29.8427L94.5104 30.1062C95.8853 30.1647 96.5289 29.4913 96.5289 28.3788ZM107.967 24.4556V18.0437C107.967 14.2376 109.693 11.6612 112.589 11.6612C114.958 11.6612 115.573 13.0372 115.573 15.8479V24.4556H117.971V18.0437C117.971 14.2376 119.697 11.6612 122.593 11.6612C124.963 11.6612 125.577 13.0372 125.577 15.8479V24.4556H127.976V15.2916C127.976 12.0418 126.513 9.61174 123.471 9.61174C120.37 9.61174 118.849 11.3977 118.264 14.0327H117.825C117.503 11.427 116.099 9.61174 113.466 9.61174C110.366 9.61174 108.844 11.3977 108.259 14.0327H107.587L107.967 12.3931V9.90451H105.568V24.4556H107.967ZM138.624 24.7483C143.246 24.7483 145.001 21.6156 145.557 19.3612H143.159C142.632 21.5863 141.023 22.7575 138.624 22.7575C135.026 22.7575 133.71 20.386 133.563 17.6338H145.06V16.697C145.06 12.2175 142.369 9.61174 138.273 9.61174C134.149 9.61174 131.223 12.3053 131.223 16.9897C131.223 21.1765 133.417 24.7483 138.624 24.7483ZM142.72 15.8186H133.563C133.563 13.4764 135.406 11.6319 138.273 11.6319C141.169 11.6319 142.72 13.4764 142.72 15.8186ZM151.262 24.4556V11.6905L158.955 11.954V9.90451L150.881 9.64101C149.506 9.58246 148.863 10.2558 148.863 11.6319V24.4556H151.262Z" fill="white"/>
<path fill-rule="evenodd" clip-rule="evenodd" d="M0.44281 7.2748L3.25139 9.29907L10.5097 4.05329L14.1161 6.63852L16.9389 4.6068C14.8479 3.10663 12.6046 1.50193 10.5083 0L0.44281 7.2748Z" fill="white"/>
<path fill-rule="evenodd" clip-rule="evenodd" d="M19.2115 10.3069L36.1185 22.468V18.4232L22.033 8.27734L19.2115 10.3069Z" fill="white"/>
<path fill-rule="evenodd" clip-rule="evenodd" d="M0 12.5769L14.0436 22.6979C14.9834 22.0208 15.9248 21.3448 16.866 20.6688L0 8.52612V12.5769Z" fill="white"/>
<path fill-rule="evenodd" clip-rule="evenodd" d="M25.6086 26.9467L22.0551 24.3942L19.2354 26.4278C21.3576 27.9515 23.4828 29.4751 25.6096 31L35.679 23.7225L32.8712 21.698L25.6086 26.9467Z" fill="white"/>
<path fill-rule="evenodd" clip-rule="evenodd" d="M7.9433 12.7082C8.88238 13.3849 9.82105 14.0618 10.7603 14.7387L25.6086 4.05287L32.8666 9.29865L35.6745 7.27346L25.6095 0L7.9433 12.7082Z" fill="white"/>
<path fill-rule="evenodd" clip-rule="evenodd" d="M30.3409 12.6932C31.2705 13.3636 32.2013 14.0335 33.1312 14.7058L36.1185 12.5591V8.5249C34.1921 9.91391 32.269 11.3051 30.3409 12.6932Z" fill="white"/>
<path fill-rule="evenodd" clip-rule="evenodd" d="M0 18.4398V22.4707C1.91666 21.0889 3.82104 19.7284 5.73821 18.3496C4.79923 17.6726 3.86325 16.9981 2.92767 16.325C1.95102 17.0295 0.975202 17.735 0 18.4398Z" fill="white"/>
<path fill-rule="evenodd" clip-rule="evenodd" d="M10.5089 26.9473L3.24933 21.6992L0.441467 23.7244L10.5083 31.0001L28.0716 18.3391C27.1382 17.6661 26.2079 16.9969 25.2784 16.3276L10.5089 26.9473Z" fill="white"/>
</svg>
